<svg version="1.1" id="Layer_1" xmlns="http://www.w3.org/2000/svg" xmlns:xlink="http://www.w3.org/1999/xlink" x="0px" y="0px"
	 width="100%" viewBox="0 0 288 288" enable-background="new 0 0 288 288" xml:space="preserve">
<path fill="#010000" opacity="1.000000" stroke="none" 
	d="
M189.000000,289.000000 
	C127.359886,289.000000 66.219719,288.969788 5.079815,289.084198 
	C1.832412,289.090302 0.889633,288.671936 0.894739,285.082977 
	C1.027683,191.623764 1.020550,98.164284 0.913487,4.704995 
	C0.909786,1.474692 1.775585,0.926840 4.791914,0.929616 
	C98.251244,1.015648 191.710678,1.013574 285.170013,0.937100 
	C288.095062,0.934706 289.097076,1.342211 289.092957,4.666943 
	C288.977325,98.292801 288.979187,191.918854 289.091156,285.544708 
	C289.094879,288.648041 288.318939,289.084686 285.457916,289.074188 
	C253.472275,288.956726 221.486069,289.000000 189.000000,289.000000 
z"/>
<path fill="#B12220" opacity="1.000000" stroke="none" 
	d="
M109.339104,167.809372 
	C109.185837,168.299179 109.129997,168.678452 109.040054,168.847717 
	C108.508827,169.449860 108.518028,170.050797 108.193398,170.821045 
	C104.669693,178.967178 101.315681,186.882751 97.742416,195.129761 
	C95.934273,195.868210 94.630066,196.439941 95.851013,198.755890 
	C95.818054,201.981873 94.242538,203.420303 91.430550,202.991638 
	C88.313087,202.516403 84.256294,204.910355 82.442566,200.092010 
	C80.517654,194.978317 78.413963,189.931900 76.372650,184.509888 
	C76.136612,182.260269 77.672005,180.093323 75.307816,178.181854 
	C70.222733,167.311584 65.915367,156.533966 63.234734,144.740967 
	C63.428299,141.682861 62.605072,139.541443 60.336338,137.933609 
	C59.241890,137.157990 58.399872,136.250427 57.908180,134.780823 
	C54.609821,124.922562 50.667690,115.286728 46.852489,105.631752 
	C45.214367,101.486214 44.278671,97.003906 41.756538,93.100937 
	C38.800751,88.526909 40.389462,86.373611 47.761780,84.161591 
	C53.970592,83.842094 59.871632,83.780228 66.213020,83.798759 
	C68.452888,83.269470 70.135483,83.175446 71.416573,85.384239 
	C71.215538,86.327835 71.078720,86.863091 71.034737,87.817825 
	C71.100548,88.978378 71.341866,89.710136 71.477600,90.825111 
	C71.501289,91.420921 71.507690,91.656822 71.537735,92.240860 
	C71.683945,93.342758 72.050217,93.839233 73.220177,93.793762 
	C73.937752,94.207954 74.319313,94.670341 74.749771,95.366318 
	C74.985031,96.781143 75.031174,97.991943 75.677521,99.447052 
	C79.301590,109.496513 82.435463,119.335106 86.831528,129.150330 
	C87.046326,129.517044 86.985939,129.492966 87.003265,129.465454 
	C87.712082,134.675156 90.797768,139.146881 91.937439,144.654556 
	C92.104546,145.014908 92.026321,144.991806 92.037872,144.952698 
	C94.020309,147.162781 93.042030,150.669617 95.550995,153.108887 
	C97.560158,158.863220 98.917763,164.422638 101.330299,169.805573 
	C101.750534,169.831406 101.591225,169.746780 101.633545,169.667130 
	C101.313957,169.745819 101.154350,169.950089 101.202461,170.199234 
	C101.255554,170.474228 101.336052,170.611252 101.467979,170.949158 
	C101.543617,172.809692 102.140968,173.350754 103.776459,172.200745 
	C104.912544,170.168945 105.030205,167.992966 106.851242,166.278427 
	C108.788116,164.768494 109.495300,165.381012 109.339104,167.809372 
z"/>
<path fill="#AF2120" opacity="1.000000" stroke="none" 
	d="
M200.237732,202.492889 
	C187.615860,202.860748 175.284988,202.901718 162.493378,202.863083 
	C159.357407,201.009857 160.209702,198.470261 160.971741,196.285629 
	C161.677109,194.263535 161.884613,192.496857 160.610809,190.282928 
	C160.324478,189.540344 160.251144,189.149857 160.231506,188.463684 
	C160.627060,186.995117 160.451996,185.789795 160.568024,184.247330 
	C162.123032,181.043655 161.294739,178.050598 161.268768,175.078049 
	C161.239182,171.688263 159.490417,167.947922 162.882233,164.727386 
	C162.961624,164.128754 163.021164,163.882111 162.937286,163.287903 
	C161.698578,161.231079 161.467209,159.356903 161.478119,157.351593 
	C161.528427,148.105804 161.357788,138.856232 161.571121,129.615112 
	C161.653793,126.033966 161.569046,122.393379 162.398804,118.432327 
	C162.589478,116.369514 162.383728,114.779953 161.574493,112.883636 
	C161.457657,106.854477 161.717407,101.218956 161.428635,95.606789 
	C161.221909,91.588959 162.447357,88.569511 166.137634,86.192276 
	C166.887283,85.769249 167.357864,85.630287 168.177994,85.458336 
	C168.710953,85.270805 168.906998,85.160316 169.394623,84.891457 
	C170.291214,84.461769 170.966217,84.537910 171.817581,84.126892 
	C174.996658,83.622475 177.947678,83.295723 181.243927,84.525475 
	C182.166245,84.101471 182.949997,84.022072 184.161407,84.186142 
	C184.732864,84.469948 184.925217,84.643791 185.404083,85.067558 
	C185.903000,85.444099 186.115402,85.570702 186.580902,85.958359 
	C187.128082,87.338646 187.295227,88.486938 187.817047,90.220291 
	C188.280762,91.434837 188.737762,91.900612 189.174255,92.747574 
	C189.347366,93.478447 189.411011,93.911911 189.398407,94.667755 
	C189.258514,95.162674 189.194855,95.335190 189.237717,95.762146 
	C189.419754,102.368324 189.495270,108.720055 189.475372,115.530792 
	C187.782120,119.384613 187.769577,122.826431 189.171387,126.657990 
	C189.372650,128.394699 189.476624,129.780701 189.491974,131.577591 
	C189.323166,132.160233 189.242996,132.331985 189.286224,132.759857 
	C189.462448,133.453094 189.515289,133.890213 189.487732,134.650116 
	C188.285507,138.172699 187.633575,141.306870 190.641891,143.939117 
	C191.607590,144.784088 191.405151,145.582947 190.247330,146.595718 
	C189.878693,163.516434 189.783356,180.189270 189.741989,196.862244 
	C189.739639,197.808472 190.179459,198.755798 190.775421,199.974564 
	C193.497452,200.785538 195.892349,200.361328 198.266541,200.505157 
	C199.371964,200.572113 200.608063,200.477921 200.237732,202.492889 
z"/>
<path fill="#AA2321" opacity="1.000000" stroke="none" 
	d="
M184.208847,86.242683 
	C184.006271,85.984337 183.983932,85.576546 183.971832,85.372704 
	C183.367615,83.653778 184.437195,83.633934 185.884201,83.695374 
	C187.298141,83.802315 188.252869,83.754372 189.560974,83.776917 
	C190.104706,84.181580 190.385544,84.330055 190.928650,84.049187 
	C206.938354,83.801048 222.790039,83.768204 239.071457,83.823891 
	C246.083862,83.067856 247.640396,84.288094 247.941452,90.713730 
	C248.134857,94.841293 247.800873,98.982498 248.303253,103.560547 
	C248.508957,104.824936 248.601624,105.637138 248.632065,106.752792 
	C246.182846,108.704483 248.403198,110.469978 248.534760,112.133759 
	C248.737656,114.699677 249.652252,117.387901 245.170517,117.324661 
	C238.468018,95.097595 219.041702,87.095413 201.886932,86.930061 
	C199.566666,86.907692 197.212601,87.165192 194.932922,86.857666 
	C190.655304,86.280624 189.246597,88.291801 189.397614,92.610077 
	C188.410202,93.033844 187.536667,93.022697 186.327606,93.001892 
	C184.945572,91.283516 182.046600,90.331947 183.875854,87.258263 
	C184.140015,86.844475 184.275726,86.672752 184.208847,86.242683 
z"/>
<path fill="#AF2120" opacity="1.000000" stroke="none" 
	d="
M204.653687,141.641510 
	C213.623230,136.787643 218.319427,129.713959 218.493851,119.800140 
	C218.516632,118.504295 218.397949,116.943947 220.321518,116.841087 
	C222.514969,116.723793 222.597961,118.352669 222.589615,119.894310 
	C222.550110,127.196274 222.475449,134.498047 222.253204,142.144775 
	C220.828568,144.180252 219.791931,145.887955 221.909760,148.092102 
	C223.160995,154.794571 222.483505,161.257675 222.494568,167.704178 
	C222.496704,168.949966 222.520996,170.627670 220.678986,170.733688 
	C218.439713,170.862549 218.697128,168.952515 218.471970,167.557297 
	C217.551819,161.855469 215.572281,156.673477 211.126862,152.292877 
	C209.849380,150.024734 208.054306,148.939865 205.644196,148.174164 
	C205.289261,148.150970 205.134109,148.262222 205.066772,148.194550 
	C203.558167,146.171890 201.478088,144.287918 204.653687,141.641510 
z"/>
<path fill="#A92620" opacity="1.000000" stroke="none" 
	d="
M169.756256,86.778198 
	C169.562546,87.700829 169.284286,88.898727 168.724350,89.049324 
	C161.776505,90.917862 163.044388,96.488304 163.002731,101.463333 
	C162.973740,104.926949 163.004089,108.391052 163.009186,112.308617 
	C162.856323,113.010689 162.702194,113.259094 162.108032,113.580551 
	C161.147736,113.352768 160.681366,112.982582 160.200165,112.114861 
	C159.798843,103.886330 160.007523,96.107758 160.267181,87.877197 
	C158.261108,87.255440 156.459915,87.010429 154.651764,86.936859 
	C147.517426,86.646599 142.093369,88.847191 139.883194,96.455421 
	C138.874191,99.928787 137.100220,103.179947 135.464630,106.801559 
	C133.947906,107.926453 134.479370,111.377434 131.157471,109.394791 
	C131.414703,107.505333 131.947739,106.001495 132.699219,104.235504 
	C133.055801,103.848267 133.193985,103.723175 133.293976,103.321129 
	C133.331604,102.535866 133.407455,102.027565 133.630157,101.161797 
	C134.065292,97.944557 134.114853,95.123878 132.263275,92.291664 
	C129.641129,88.438080 126.166222,86.974174 121.936264,86.895775 
	C120.432915,86.867920 118.280563,87.396126 118.971268,84.302383 
	C119.900352,83.293724 120.790421,83.519058 122.080994,83.750732 
	C124.246651,83.826782 125.990532,83.775070 128.093719,83.832420 
	C133.145737,83.054352 137.874329,83.624908 143.064728,83.767120 
	C146.906494,83.852013 150.271637,83.763298 154.035522,83.807251 
	C155.436707,83.461594 156.495621,83.477257 158.066650,83.760948 
	C162.069641,83.186012 165.599091,83.720947 169.561859,83.794167 
	C170.258286,84.052551 170.509323,84.224091 170.393997,84.667236 
	C170.027634,84.938850 169.989853,84.993393 169.971680,85.021156 
	C169.505630,85.470505 169.107620,85.905647 169.756256,86.778198 
z"/>
<path fill="#A42B21" opacity="1.000000" stroke="none" 
	d="
M47.631599,83.812851 
	C41.281487,89.919937 41.347183,89.892387 46.134689,101.308365 
	C50.276363,111.184341 54.604118,120.993973 57.675343,131.285919 
	C58.551823,134.223083 60.609676,135.903870 63.465782,136.956085 
	C67.148056,138.312637 69.005028,140.647690 66.000046,144.843231 
	C64.207718,143.148651 62.131630,142.356659 59.997917,141.079224 
	C53.671268,125.343422 47.351212,109.910370 41.676975,94.243423 
	C39.820503,89.117599 37.908730,85.646080 31.416515,86.760040 
	C30.051281,84.717072 30.426153,83.513191 32.799149,83.510124 
	C34.414726,83.508034 36.034950,83.395164 38.101913,83.788391 
	C41.436489,83.876999 44.315071,83.799370 47.631599,83.812851 
z"/>
<path fill="#8F4731" opacity="1.000000" stroke="none" 
	d="
M161.413605,183.644592 
	C160.950211,185.231857 160.743958,186.367538 160.411438,187.835602 
	C159.206100,180.879303 159.668121,173.533707 159.617722,166.219162 
	C159.504074,149.723785 159.663803,133.226547 159.870789,116.351143 
	C160.642136,115.639740 161.228806,115.660889 162.057526,116.505081 
	C161.970840,130.465652 161.771393,144.030579 162.065704,157.585449 
	C162.251404,166.137817 161.435654,174.653381 161.413605,183.644592 
z"/>
<path fill="#A42B21" opacity="1.000000" stroke="none" 
	d="
M65.998619,144.998535 
	C65.177628,148.694229 66.798370,151.670959 67.824097,155.016724 
	C70.185402,162.718994 73.456345,170.068771 75.967209,178.084686 
	C76.043518,179.037888 75.722763,179.383453 74.813957,179.220459 
	C70.346466,168.381699 66.187859,157.792374 62.021881,146.842468 
	C62.360886,144.887482 62.705242,143.290604 65.329338,144.361816 
	C65.677681,144.681885 65.891594,144.893021 65.998619,144.998535 
z"/>
<path fill="#AA2321" opacity="1.000000" stroke="none" 
	d="
M204.627838,141.493668 
	C204.990814,143.423645 204.976608,145.422821 204.980896,147.774445 
	C200.383057,146.741562 195.661453,146.448608 190.421661,146.805145 
	C189.098984,144.597321 188.098312,142.391785 187.416534,140.091705 
	C186.888260,138.309494 187.231140,136.558517 189.144836,135.151382 
	C189.886810,143.548096 191.572769,144.726654 200.460770,142.647415 
	C201.738693,142.348465 202.988068,141.927429 204.627838,141.493668 
z"/>
<path fill="#A1281B" opacity="1.000000" stroke="none" 
	d="
M160.263611,190.348969 
	C163.012833,191.060623 163.402115,193.076080 162.871597,195.640121 
	C162.441116,197.720734 162.303635,199.861969 162.034439,202.379898 
	C158.211273,202.872879 154.390091,203.006607 150.568329,203.026306 
	C149.325043,203.032715 147.428589,203.309875 147.529663,201.440170 
	C147.626099,199.656204 149.517532,200.108673 150.765701,200.017990 
	C159.500061,199.383484 159.500778,199.393417 160.263611,190.348969 
z"/>
<path fill="#AC623F" opacity="1.000000" stroke="none" 
	d="
M87.030518,129.085495 
	C85.064850,128.316696 84.159752,126.327736 83.433479,124.297745 
	C80.415726,115.862892 77.472328,107.401443 74.420807,98.497528 
	C74.645813,98.135040 74.951660,98.224785 75.589264,98.658813 
	C80.164032,108.682755 83.601494,118.663818 87.030518,129.085495 
z"/>
<path fill="#98231F" opacity="1.000000" stroke="none" 
	d="
M110.832657,157.276398 
	C112.795792,151.794540 114.901031,146.737823 117.189034,141.372040 
	C119.170738,139.827454 119.365166,141.363342 119.872803,142.837158 
	C118.679695,148.178070 116.179626,152.652023 114.028336,157.638519 
	C112.792053,159.023438 111.821434,159.124619 110.832657,157.276398 
z"/>
<path fill="#993020" opacity="1.000000" stroke="none" 
	d="
M244.842682,117.545715 
	C246.683685,115.859901 247.580109,114.157959 246.969070,111.800713 
	C246.546738,110.171478 246.522415,108.603134 248.307312,107.245872 
	C249.694443,111.277046 249.359894,115.626251 249.668701,119.917244 
	C249.780441,121.469902 250.394440,123.578796 247.929611,123.843773 
	C245.504730,124.104446 245.668427,121.935516 245.317581,120.391212 
	C245.134262,119.584236 245.051239,118.754478 244.842682,117.545715 
z"/>
<path fill="#A1281B" opacity="1.000000" stroke="none" 
	d="
M70.580322,87.603409 
	C69.721207,85.969604 68.809357,84.827812 66.998230,84.041687 
	C71.952118,83.752121 77.250435,83.584015 82.549934,83.528389 
	C83.794327,83.515320 85.622719,83.337036 85.696388,85.109055 
	C85.790474,87.372147 83.734421,86.879784 82.367516,86.940475 
	C79.222954,87.080101 76.072556,87.088486 72.471375,87.252991 
	C71.672623,87.636078 71.280197,87.794067 70.580322,87.603409 
z"/>
<path fill="#993020" opacity="1.000000" stroke="none" 
	d="
M248.491898,103.550621 
	C246.073837,100.390198 247.309357,96.294586 246.917130,92.419182 
	C246.487778,88.177017 245.461868,84.532059 239.916718,83.978149 
	C247.892838,82.829834 248.272736,83.150093 248.422073,91.594856 
	C248.489838,95.425735 248.520187,99.257263 248.491898,103.550621 
z"/>
<path fill="#8F4731" opacity="1.000000" stroke="none" 
	d="
M160.005585,87.812195 
	C162.210953,95.323448 160.357620,103.447166 161.459106,111.900383 
	C161.539780,112.617874 161.558304,112.845322 161.600861,113.414230 
	C161.362167,114.155685 160.992310,114.375031 160.244720,114.204056 
	C159.004242,105.398216 159.750717,96.800163 160.005585,87.812195 
z"/>
<path fill="#912719" opacity="1.000000" stroke="none" 
	d="
M118.489868,139.331070 
	C119.340141,136.069351 120.467155,133.203598 121.849640,130.093628 
	C123.012207,129.171890 123.903320,128.446350 125.458954,129.138275 
	C125.126740,132.809326 123.443771,135.731964 121.677383,138.971313 
	C120.611855,139.612961 119.798134,140.275269 118.489868,139.331070 
z"/>
<path fill="#AC623F" opacity="1.000000" stroke="none" 
	d="
M92.114769,144.681946 
	C89.006386,140.537186 86.683693,135.782608 86.910278,129.797607 
	C89.305824,134.208466 91.695534,138.943207 92.114769,144.681946 
z"/>
<path fill="#8F4731" opacity="1.000000" stroke="none" 
	d="
M101.771469,169.411133 
	C97.632179,165.405075 96.218674,159.816223 94.960045,153.765411 
	C95.016518,153.151779 95.119789,152.913452 95.570587,152.851257 
	C98.544365,158.102676 99.885635,163.650818 101.771469,169.411133 
z"/>
<path fill="#A92620" opacity="1.000000" stroke="none" 
	d="
M132.617188,112.631104 
	C132.827026,113.305832 132.741898,113.567459 132.427765,113.947060 
	C132.080765,114.184196 131.885513,114.278221 131.784653,114.683304 
	C130.931534,117.438263 129.984009,119.882149 128.858002,122.641296 
	C128.139343,123.766632 127.379700,123.996597 126.154800,123.496239 
	C125.596535,122.671944 125.496971,122.120422 125.720345,121.147743 
	C126.149933,119.998505 126.412460,119.242294 126.852089,118.243263 
	C127.320801,117.701958 127.585342,117.381340 127.892464,116.731430 
	C128.260635,115.465309 128.554657,114.502678 129.023651,113.281975 
	C130.161713,112.337776 131.086670,111.495392 132.617188,112.631104 
z"/>
<path fill="#AA2321" opacity="1.000000" stroke="none" 
	d="
M189.335968,126.553345 
	C185.395172,122.769325 185.322495,120.800575 189.127792,116.175133 
	C190.075806,119.357605 189.520493,122.728302 189.335968,126.553345 
z"/>
<path fill="#C48349" opacity="1.000000" stroke="none" 
	d="
M65.782272,144.384430 
	C64.649864,145.162689 63.622051,145.643478 62.304375,146.303085 
	C61.298527,144.863312 60.582542,143.244720 59.803318,141.246796 
	C61.512081,140.557037 62.826038,138.053299 64.994354,139.705643 
	C66.527657,140.874084 66.499191,142.440323 65.782272,144.384430 
z"/>
<path fill="#D1604B" opacity="1.000000" stroke="none" 
	d="
M96.126907,198.865540 
	C94.148705,198.527390 91.953590,198.029999 92.870087,195.575790 
	C93.651825,193.482407 95.442207,194.024521 97.252869,195.252289 
	C97.132256,196.527954 96.741348,197.594711 96.126907,198.865540 
z"/>
<path fill="#912719" opacity="1.000000" stroke="none" 
	d="
M109.405289,168.056198 
	C108.647781,167.669266 108.109726,167.039352 107.325294,166.218277 
	C107.611588,164.475586 108.144264,162.924026 108.910042,161.108643 
	C110.911087,159.953766 110.839470,161.545975 111.454056,162.727051 
	C110.954239,164.617477 110.289497,166.215347 109.405289,168.056198 
z"/>
<path fill="#98231F" opacity="1.000000" stroke="none" 
	d="
M133.062881,112.745728 
	C131.865219,113.018356 130.895554,113.017662 129.562256,113.020432 
	C129.614563,111.838470 130.030487,110.653046 130.664032,109.238388 
	C132.145325,108.485222 133.408981,107.961281 134.964355,107.254280 
	C134.600998,108.871613 133.945923,110.672005 133.062881,112.745728 
z"/>
<path fill="#AC623F" opacity="1.000000" stroke="none" 
	d="
M95.867950,152.707184 
	C95.750374,153.086975 95.582634,153.146545 95.164070,153.298126 
	C93.108063,151.089371 91.905724,148.560013 91.996719,145.236893 
	C94.547913,146.778259 94.258713,150.048599 95.867950,152.707184 
z"/>
<path fill="#F3857B" opacity="1.000000" stroke="none" 
	d="
M159.954269,114.324677 
	C160.293533,113.735817 160.612930,113.477272 161.361572,112.970932 
	C161.993469,112.749168 162.196075,112.775208 162.704559,112.781769 
	C164.280594,113.653351 164.581238,114.808220 163.892395,116.491898 
	C163.366119,117.555496 162.757095,118.032890 161.479843,117.406479 
	C160.961075,116.819260 160.742477,116.522751 160.276581,116.099228 
	C159.997650,115.533150 159.966034,115.094070 159.954269,114.324677 
z"/>
<path fill="#D1604B" opacity="1.000000" stroke="none" 
	d="
M74.585152,179.354950 
	C74.868584,178.884079 75.232101,178.797150 75.840363,178.571716 
	C80.298203,179.785629 76.706482,181.826859 76.447517,183.864822 
	C75.793045,182.688736 75.229141,181.213821 74.585152,179.354950 
z"/>
<path fill="#A1281B" opacity="1.000000" stroke="none" 
	d="
M200.321075,202.814224 
	C197.703568,200.450714 194.514984,201.338013 191.487335,200.355988 
	C193.932098,200.168182 196.729843,199.976227 199.520599,200.049500 
	C201.548676,200.102783 202.855820,200.805450 200.321075,202.814224 
z"/>
<path fill="#993020" opacity="1.000000" stroke="none" 
	d="
M143.106964,83.815163 
	C138.854874,83.958755 134.168396,83.976776 128.967468,83.968140 
	C133.180389,83.152725 137.928391,83.529510 143.106964,83.815163 
z"/>
<path fill="#8F4731" opacity="1.000000" stroke="none" 
	d="
M118.038651,139.171555 
	C119.031227,138.993759 119.849319,139.052399 121.072456,139.175140 
	C121.104607,140.360519 120.731712,141.481766 120.148911,142.902374 
	C119.198555,142.639359 118.458115,142.076981 117.544739,141.288788 
	C117.535912,140.511307 117.700027,139.959641 118.038651,139.171555 
z"/>
<path fill="#98231F" opacity="1.000000" stroke="none" 
	d="
M132.213455,92.383560 
	C134.346893,94.376846 135.211395,97.085098 133.913635,100.538101 
	C133.846252,98.027359 133.761139,95.278160 132.213455,92.383560 
z"/>
<path fill="#D1604B" opacity="1.000000" stroke="none" 
	d="
M73.634140,93.517410 
	C73.366898,95.462387 72.420479,96.557404 70.689087,96.304932 
	C68.932648,96.048805 68.862343,94.752922 69.742737,93.099152 
	C70.770706,92.144768 71.624695,91.753983 73.101639,92.627937 
	C73.554848,92.833412 73.712082,93.289261 73.634140,93.517410 
z"/>
<path fill="#AC623F" opacity="1.000000" stroke="none" 
	d="
M73.566635,92.464935 
	C72.656471,92.847008 71.758102,92.860603 70.413589,92.863144 
	C69.967445,92.852081 70.051140,92.501495 70.080688,92.323715 
	C70.635170,91.203529 70.595482,90.224663 70.214203,88.939362 
	C70.215210,88.378044 70.270294,88.100548 70.311249,87.607071 
	C70.703056,87.383827 71.078712,87.370567 71.736298,87.356575 
	C72.538292,88.936050 73.058357,90.516251 73.566635,92.464935 
z"/>
<path fill="#D13F38" opacity="1.000000" stroke="none" 
	d="
M222.230347,147.884247 
	C219.659073,146.782028 218.526260,145.052704 221.814865,142.683975 
	C222.173508,144.126602 222.253922,145.763565 222.230347,147.884247 
z"/>
<path fill="#AC623F" opacity="1.000000" stroke="none" 
	d="
M125.886009,129.279175 
	C124.781296,129.591629 123.808693,129.738632 122.470604,129.867523 
	C122.105125,129.849396 122.218292,129.388138 122.334244,129.180893 
	C122.450195,128.973648 122.499260,128.501465 122.667511,128.334045 
	C122.909241,127.961044 122.982727,127.755463 123.233231,127.274353 
	C124.317955,126.250870 125.224464,125.492744 126.499512,127.057358 
	C126.434517,128.012573 126.226311,128.563141 125.886009,129.279175 
z"/>
<path fill="#A1281B" opacity="1.000000" stroke="none" 
	d="
M38.161842,83.822731 
	C36.026031,84.218750 33.198406,83.475349 31.169575,86.361496 
	C29.216658,84.542152 30.647429,83.734734 32.470470,83.534668 
	C34.208927,83.343887 35.998611,83.619980 38.161842,83.822731 
z"/>
<path fill="#AA2321" opacity="1.000000" stroke="none" 
	d="
M205.551605,148.391388 
	C207.671539,148.226425 209.733276,148.850021 210.847443,151.652695 
	C209.259018,150.865433 207.536484,149.748627 205.551605,148.391388 
z"/>
<path fill="#AC623F" opacity="1.000000" stroke="none" 
	d="
M111.765823,162.698471 
	C110.672966,162.743546 109.904831,162.245407 109.314621,161.077942 
	C109.222939,160.341965 109.302719,159.839127 109.563179,159.149536 
	C110.765900,158.223907 111.675285,158.364883 112.508934,159.838242 
	C112.328613,161.034576 112.120636,161.705963 111.765823,162.698471 
z"/>
<path fill="#912719" opacity="1.000000" stroke="none" 
	d="
M126.852661,127.128815 
	C125.784096,127.285370 124.925468,127.108749 123.738548,126.965485 
	C123.687790,126.117981 123.965324,125.237129 124.410507,124.127693 
	C124.808243,123.741707 125.038330,123.584312 125.682747,123.483429 
	C126.614830,123.764786 127.067070,124.082802 127.517609,124.907257 
	C127.408493,125.812210 127.235542,126.303925 126.852661,127.128815 
z"/>
<path fill="#912719" opacity="1.000000" stroke="none" 
	d="
M103.794327,171.921951 
	C103.217186,172.939346 102.457542,174.077850 101.253693,172.183258 
	C101.416008,171.635132 101.604614,171.262741 102.286530,171.276001 
	C103.052216,171.724854 103.321739,171.798553 103.794327,171.921951 
z"/>
<path fill="#993020" opacity="1.000000" stroke="none" 
	d="
M186.023071,83.769730 
	C185.739853,84.165710 185.136292,84.481155 184.246231,84.982727 
	C183.333786,85.098442 182.707809,85.028030 181.855484,84.908379 
	C182.844391,83.972649 184.173843,83.483734 186.023071,83.769730 
z"/>
<path fill="#912719" opacity="1.000000" stroke="none" 
	d="
M112.735199,160.166382 
	C111.867546,159.952057 111.198494,159.540924 110.136642,159.046265 
	C109.942856,158.414673 110.141861,157.866577 110.515709,157.084869 
	C111.527672,157.150864 112.364799,157.450470 113.522453,157.842438 
	C113.539925,158.613052 113.236862,159.291321 112.735199,160.166382 
z"/>
<path fill="#98231F" opacity="1.000000" stroke="none" 
	d="
M127.746155,125.113541 
	C127.218849,125.100670 126.856262,124.880852 126.229111,124.485306 
	C125.862633,124.151276 125.760704,123.992966 125.828377,123.418358 
	C126.668388,122.990921 127.338799,122.979782 128.344360,122.962601 
	C128.423294,123.606575 128.167084,124.256584 127.746155,125.113541 
z"/>
<path fill="#8F4731" opacity="1.000000" stroke="none" 
	d="
M75.907417,98.642174 
	C75.651329,98.862236 75.381645,98.721390 74.725967,98.312927 
	C74.412628,97.376709 74.485283,96.708107 74.678299,95.819702 
	C75.163712,96.493683 75.528763,97.387466 75.907417,98.642174 
z"/>
<path fill="#993020" opacity="1.000000" stroke="none" 
	d="
M158.244644,83.781631 
	C157.534760,83.949760 156.500900,83.959625 154.950668,83.954704 
	C155.547836,83.299408 156.729050,83.403900 158.244644,83.781631 
z"/>
<path fill="#993020" opacity="1.000000" stroke="none" 
	d="
M122.227158,83.764191 
	C121.671707,83.936493 120.840645,83.994492 119.596451,84.054497 
	C120.028641,83.393921 120.992142,83.535889 122.227158,83.764191 
z"/>
<path fill="#AA2321" opacity="1.000000" stroke="none" 
	d="
M189.466187,132.758743 
	C189.144638,132.752518 189.101868,132.460999 189.342316,132.064957 
	C189.443130,132.159485 189.482925,132.330505 189.466187,132.758743 
z"/>
<path fill="#AA2321" opacity="1.000000" stroke="none" 
	d="
M170.285843,84.822815 
	C170.023788,84.762558 170.019928,84.586258 170.011658,84.145493 
	C170.462799,83.834862 170.918335,83.788696 171.710495,83.823135 
	C171.546097,84.171417 171.045074,84.439102 170.285843,84.822815 
z"/>
<path fill="#912719" opacity="1.000000" stroke="none" 
	d="
M108.246811,170.861023 
	C108.222343,170.526016 108.420975,170.000427 108.784866,169.245926 
	C108.790054,169.568146 108.629982,170.119293 108.246811,170.861023 
z"/>
<path fill="#98231F" opacity="1.000000" stroke="none" 
	d="
M125.670036,120.980469 
	C125.917229,121.254082 125.947052,121.753448 125.987427,122.627434 
	C125.997971,123.002060 126.000130,122.999870 126.001923,122.998116 
	C125.829597,123.162994 125.655487,123.329636 125.221054,123.245453 
	C125.124702,122.398499 125.288689,121.802361 125.670036,120.980469 
z"/>
<path fill="#8F4731" opacity="1.000000" stroke="none" 
	d="
M102.714813,171.370468 
	C102.520393,171.719177 102.260979,171.776703 101.614471,171.920868 
	C101.306755,171.467499 101.386139,170.927490 101.570694,169.987488 
	C102.000526,170.084747 102.325172,170.582016 102.714813,171.370468 
z"/>
<path fill="#AA2321" opacity="1.000000" stroke="none" 
	d="
M189.397003,95.758728 
	C189.090408,95.754860 189.045227,95.464615 189.265427,95.068001 
	C189.364716,95.160393 189.407257,95.330635 189.397003,95.758728 
z"/>
<path fill="#98231F" opacity="1.000000" stroke="none" 
	d="
M133.131653,103.262054 
	C133.278290,103.307327 133.221329,103.551918 133.001251,103.875648 
	C132.947601,103.808876 132.977570,103.644409 133.131653,103.262054 
z"/>
<path fill="#98231F" opacity="1.000000" stroke="none" 
	d="
M132.023483,114.788162 
	C131.880814,114.732521 131.954620,114.492805 132.188248,114.182693 
	C132.239990,114.254097 132.203949,114.418022 132.023483,114.788162 
z"/>
<path fill="#993020" opacity="1.000000" stroke="none" 
	d="
M190.792953,83.783859 
	C191.086655,83.833900 190.650757,83.930481 190.650757,83.930481 
	C190.650757,83.930481 190.204605,83.921967 190.059479,83.884674 
	C190.109299,83.809532 190.304276,83.771675 190.792953,83.783859 
z"/>
<path fill="#98231F" opacity="1.000000" stroke="none" 
	d="
M127.697372,116.607071 
	C127.766808,116.782303 127.567024,117.136673 127.198212,117.745750 
	C127.162178,117.595703 127.295174,117.190956 127.697372,116.607071 
z"/>
<path fill="#A92620" opacity="1.000000" stroke="none" 
	d="
M124.826462,123.204422 
	C125.134537,122.994850 125.308365,122.995079 125.742950,122.995834 
	C125.998932,123.214073 125.994141,123.431778 125.976959,123.979538 
	C125.734497,124.237778 125.504440,124.165955 124.926270,123.996628 
	C124.578148,123.899109 124.692207,123.414207 124.826462,123.204422 
z"/>
<path fill="#912719" opacity="1.000000" stroke="none" 
	d="
M122.689133,128.248611 
	C122.893593,128.391251 122.850929,128.594849 122.578979,128.875549 
	C122.355804,128.741165 122.386574,128.526810 122.689133,128.248611 
z"/>
<path fill="#A42B21" opacity="1.000000" stroke="none" 
	d="
M65.602646,128.447205 
	C67.468391,130.346115 66.993996,131.612259 64.811134,132.160461 
	C63.555092,132.475906 62.324371,131.796188 62.191162,130.482437 
	C61.949986,128.103867 63.387997,127.685181 65.602646,128.447205 
z"/>
<path fill="#A42B21" opacity="1.000000" stroke="none" 
	d="
M64.859711,117.312218 
	C65.187592,115.088921 63.881310,113.056427 65.652954,111.110977 
	C68.713364,113.359474 67.904442,115.886345 66.384598,118.751938 
	C65.356728,119.012077 64.892746,118.543747 64.859711,117.312218 
z"/>
<path fill="#D1604B" opacity="1.000000" stroke="none" 
	d="
M58.844284,95.329620 
	C58.786236,94.076897 59.349129,93.548637 60.340492,93.811035 
	C61.080559,94.006912 61.353458,94.742485 60.973900,95.391052 
	C60.440853,96.301880 59.672203,96.257332 58.844284,95.329620 
z"/>
<path fill="#F3857B" opacity="1.000000" stroke="none" 
	d="
M64.597565,117.023575 
	C65.291931,117.442360 65.653770,117.941208 66.131493,118.726837 
	C65.828415,120.113533 65.150253,120.886017 63.540970,120.894165 
	C62.721703,120.657013 62.394989,120.279549 62.317978,119.380600 
	C62.810150,118.159485 63.286034,117.384773 64.597565,117.023575 
z"/>
<path fill="#D1604B" opacity="1.000000" stroke="none" 
	d="
M73.777527,122.649879 
	C74.709541,122.203529 75.256470,122.478874 75.274055,123.249992 
	C75.280754,123.544014 74.712128,124.098282 74.398376,124.103630 
	C73.625191,124.116791 73.297516,123.610268 73.777527,122.649879 
z"/>
<path fill="#A42B21" opacity="1.000000" stroke="none" 
	d="
M62.340000,119.156952 
	C62.594143,119.417480 62.785263,119.833313 63.094738,120.570541 
	C62.577850,120.556908 62.046085,120.160561 62.340000,119.156952 
z"/>
<path fill="#A1281B" opacity="1.000000" stroke="none" 
	d="
M70.114090,89.088455 
	C70.639473,89.599640 70.811485,90.581520 70.259712,91.881699 
	C70.106270,91.273087 70.102295,90.400223 70.114090,89.088455 
z"/>
<path fill="#A1281B" opacity="1.000000" stroke="none" 
	d="
M161.159912,117.576111 
	C161.839813,116.998878 162.499939,116.881966 163.497253,116.766151 
	C163.020874,128.823044 162.936401,140.893585 162.892471,152.972092 
	C162.877350,157.125854 163.774155,160.442749 167.725128,162.879700 
	C167.470047,163.532700 167.133133,163.957870 167.758606,164.794800 
	C161.389145,168.029266 161.752060,173.508133 162.804947,179.321106 
	C163.071304,180.791702 162.524124,182.267868 161.375732,183.806244 
	C161.151047,162.076248 161.145599,140.056351 161.159912,117.576111 
z"/>
<path fill="#D13F38" opacity="1.000000" stroke="none" 
	d="
M173.061356,94.542160 
	C175.496399,94.905182 176.719940,96.099678 176.490494,98.293945 
	C176.358047,99.560661 175.415909,100.355598 174.139420,100.532761 
	C172.687302,100.734306 171.402740,100.203888 170.798309,98.880417 
	C169.865555,96.838028 170.616699,95.349289 173.061356,94.542160 
z"/>
<path fill="#F3857B" opacity="1.000000" stroke="none" 
	d="
M182.468491,154.021881 
	C184.597672,155.589996 184.867325,157.112595 182.711746,158.419037 
	C181.565872,159.113495 180.331299,158.755112 179.784607,157.515900 
	C178.787216,155.255081 179.754669,154.077164 182.468491,154.021881 
z"/>
<path fill="#D13F38" opacity="1.000000" stroke="none" 
	d="
M180.011353,120.219681 
	C178.642288,118.713814 178.952744,117.628296 180.583282,117.107033 
	C181.642929,116.768295 182.653397,117.354172 182.752045,118.466599 
	C182.906799,120.211914 181.826248,120.728729 180.011353,120.219681 
z"/>
<path fill="#F3857B" opacity="1.000000" stroke="none" 
	d="
M177.891525,170.504059 
	C176.646011,171.288330 175.811615,171.097656 175.609802,169.836426 
	C175.474503,168.990814 175.868835,168.173615 176.846024,168.190933 
	C178.200928,168.214951 178.200180,169.240448 177.891525,170.504059 
z"/>
<path fill="#F3857B" opacity="1.000000" stroke="none" 
	d="
M167.962677,164.690445 
	C167.097382,164.989609 165.917084,165.348907 165.697647,164.168076 
	C165.499283,163.100616 166.609131,163.241440 167.630615,163.133774 
	C167.951431,163.557739 167.955597,163.969528 167.962677,164.690445 
z"/>
<path fill="#AA2321" opacity="1.000000" stroke="none" 
	d="
M169.970367,86.665855 
	C169.424927,86.490631 169.129089,85.952950 169.830780,85.164627 
	C169.958694,85.479980 169.963867,85.911049 169.970367,86.665855 
z"/>
<path fill="#B12220" opacity="1.000000" stroke="none" 
	d="
M184.005768,86.242294 
	C184.041946,86.241585 184.050934,86.499657 184.018768,86.887375 
	C184.004639,86.844215 184.004944,86.672234 184.005768,86.242294 
z"/>
<path fill="#AA2321" opacity="1.000000" stroke="none" 
	d="
M183.498047,143.517120 
	C183.512466,143.516159 183.483643,143.518066 183.498047,143.517120 
z"/>
<path fill="#AA2321" opacity="1.000000" stroke="none" 
	d="
M186.003922,93.004158 
	C186.007843,93.008171 185.963531,93.018806 185.977814,93.005516 
	C185.992081,92.992226 186.000000,93.000145 186.003922,93.004158 
z"/>
<path fill="#D1604B" opacity="1.000000" stroke="none" 
	d="
M232.660706,88.047745 
	C233.151215,89.322533 232.850311,90.173874 231.659653,90.246544 
	C231.312286,90.267738 230.603683,89.461113 230.598541,89.027565 
	C230.584137,87.809265 231.350494,87.428230 232.660706,88.047745 
z"/>
<path fill="#AF2120" opacity="1.000000" stroke="none" 
	d="
M161.746170,112.663940 
	C161.790848,112.723137 161.587463,112.814857 161.480682,112.799355 
	C161.373901,112.783852 161.432114,112.578423 161.476685,112.484421 
	C161.521271,112.390427 161.701492,112.604736 161.746170,112.663940 
z"/>
<path fill="#AF2120" opacity="1.000000" stroke="none" 
	d="
M201.988800,145.039154 
	C201.967072,145.036469 202.010529,145.041840 201.988800,145.039154 
z"/>
</svg>